<mxfile host="app.diagrams.net" modified="2021-05-06T16:27:20.800Z" agent="5.0 (Windows NT 10.0; Win64; x64) AppleWebKit/537.36 (KHTML, like Gecko) Chrome/90.0.4430.93 Safari/537.36" etag="v59C5HZNf1q-Hhx36REU" version="14.6.10" type="github">
  <diagram name="Page-1" id="c7488fd3-1785-93aa-aadb-54a6760d102a">
    <mxGraphModel dx="1422" dy="715" grid="1" gridSize="10" guides="1" tooltips="1" connect="1" arrows="1" fold="1" page="1" pageScale="1" pageWidth="1100" pageHeight="850" background="#ffffff" math="0" shadow="0">
      <root>
        <mxCell id="0" />
        <mxCell id="1" parent="0" />
        <mxCell id="2b4e8129b02d487f-1" value="Pool" style="swimlane;html=1;childLayout=stackLayout;horizontal=1;startSize=20;horizontalStack=0;rounded=0;shadow=0;labelBackgroundColor=none;strokeWidth=1;fontFamily=Verdana;fontSize=8;align=center;" parent="1" vertex="1">
          <mxGeometry x="170" y="80" width="3180" height="792" as="geometry" />
        </mxCell>
        <mxCell id="2b4e8129b02d487f-2" value="Kunde" style="swimlane;html=1;startSize=20;horizontal=0;" parent="2b4e8129b02d487f-1" vertex="1">
          <mxGeometry y="20" width="3180" height="300" as="geometry">
            <mxRectangle y="20" width="680" height="20" as="alternateBounds" />
          </mxGeometry>
        </mxCell>
        <mxCell id="2b4e8129b02d487f-18" style="edgeStyle=orthogonalEdgeStyle;rounded=0;html=1;labelBackgroundColor=none;startArrow=none;startFill=0;startSize=5;endArrow=classicThin;endFill=1;endSize=5;jettySize=auto;orthogonalLoop=1;strokeWidth=1;fontFamily=Verdana;fontSize=8" parent="2b4e8129b02d487f-2" source="2b4e8129b02d487f-5" target="2b4e8129b02d487f-6" edge="1">
          <mxGeometry relative="1" as="geometry" />
        </mxCell>
        <mxCell id="2b4e8129b02d487f-5" value="" style="ellipse;whiteSpace=wrap;html=1;rounded=0;shadow=0;labelBackgroundColor=none;strokeWidth=1;fontFamily=Verdana;fontSize=8;align=center;" parent="2b4e8129b02d487f-2" vertex="1">
          <mxGeometry x="40" y="57" width="30" height="30" as="geometry" />
        </mxCell>
        <mxCell id="2b4e8129b02d487f-6" value="&lt;font style=&quot;font-size: 12px&quot;&gt;Kunden lander på hovedsiden over carporte&lt;/font&gt;" style="rounded=1;whiteSpace=wrap;html=1;shadow=0;labelBackgroundColor=none;strokeWidth=1;fontFamily=Verdana;fontSize=8;align=center;" parent="2b4e8129b02d487f-2" vertex="1">
          <mxGeometry x="110" y="40.25" width="90" height="63.5" as="geometry" />
        </mxCell>
        <mxCell id="7Sn1ghP0QjaeYrTUXI2Q-8" value="Kunden modtager byggevejledning, visualisering og faktura med udasalgspris på mail" style="rounded=1;whiteSpace=wrap;html=1;" parent="2b4e8129b02d487f-2" vertex="1">
          <mxGeometry x="1390" y="40" width="140" height="60" as="geometry" />
        </mxCell>
        <mxCell id="tzsEOKulzjB3xu4Um2Aj-2" value="" style="endArrow=classic;html=1;exitX=1;exitY=0.5;exitDx=0;exitDy=0;entryX=0;entryY=0.5;entryDx=0;entryDy=0;" parent="2b4e8129b02d487f-2" source="7Sn1ghP0QjaeYrTUXI2Q-8" target="tzsEOKulzjB3xu4Um2Aj-1" edge="1">
          <mxGeometry width="50" height="50" relative="1" as="geometry">
            <mxPoint x="1540" y="110" as="sourcePoint" />
            <mxPoint x="1550" y="70" as="targetPoint" />
          </mxGeometry>
        </mxCell>
        <mxCell id="tzsEOKulzjB3xu4Um2Aj-1" value="Kunden betaler for tilbudet" style="rhombus;whiteSpace=wrap;html=1;" parent="2b4e8129b02d487f-2" vertex="1">
          <mxGeometry x="1600" y="30" width="80" height="80" as="geometry" />
        </mxCell>
        <mxCell id="2b4e8129b02d487f-3" value="Fog carport" style="swimlane;html=1;startSize=20;horizontal=0;" parent="2b4e8129b02d487f-2" vertex="1">
          <mxGeometry y="150" width="3180" height="150" as="geometry" />
        </mxCell>
        <mxCell id="TK4KHCmlHmji3xtEz4MB-1" value="Standart eller&lt;br&gt;&amp;nbsp;skræddersyet&lt;br&gt;carporte" style="rhombus;whiteSpace=wrap;html=1;" parent="2b4e8129b02d487f-3" vertex="1">
          <mxGeometry x="85" y="10" width="140" height="130" as="geometry" />
        </mxCell>
        <mxCell id="TK4KHCmlHmji3xtEz4MB-7" value="Kunden vælger standart carport" style="text;html=1;strokeColor=none;fillColor=none;align=center;verticalAlign=middle;whiteSpace=wrap;rounded=0;" parent="2b4e8129b02d487f-3" vertex="1">
          <mxGeometry x="330" y="120" width="90" height="20" as="geometry" />
        </mxCell>
        <mxCell id="7Sn1ghP0QjaeYrTUXI2Q-4" value="Materialer der skal bruges udregnes" style="rounded=1;whiteSpace=wrap;html=1;" parent="2b4e8129b02d487f-3" vertex="1">
          <mxGeometry x="820" y="45" width="120" height="60" as="geometry" />
        </mxCell>
        <mxCell id="cRBjWWYuR_NZp4JxylkW-3" value="Materialer hentes i database" style="shape=cylinder3;whiteSpace=wrap;html=1;boundedLbl=1;backgroundOutline=1;size=15;" parent="2b4e8129b02d487f-3" vertex="1">
          <mxGeometry x="1050" y="22.5" width="100" height="105" as="geometry" />
        </mxCell>
        <mxCell id="7Sn1ghP0QjaeYrTUXI2Q-5" value="" style="endArrow=classic;html=1;exitX=1;exitY=0.5;exitDx=0;exitDy=0;entryX=0;entryY=0.5;entryDx=0;entryDy=0;entryPerimeter=0;" parent="2b4e8129b02d487f-3" source="7Sn1ghP0QjaeYrTUXI2Q-4" target="cRBjWWYuR_NZp4JxylkW-3" edge="1">
          <mxGeometry width="50" height="50" relative="1" as="geometry">
            <mxPoint x="950" y="100" as="sourcePoint" />
            <mxPoint x="1000" y="50" as="targetPoint" />
          </mxGeometry>
        </mxCell>
        <mxCell id="tzsEOKulzjB3xu4Um2Aj-18" value="Metoden til at hente materiale-informattioner ud til den specifikke carport initializeres" style="text;html=1;strokeColor=none;fillColor=none;align=center;verticalAlign=middle;whiteSpace=wrap;rounded=0;" parent="2b4e8129b02d487f-3" vertex="1">
          <mxGeometry x="940" y="30" width="110" height="20" as="geometry" />
        </mxCell>
        <mxCell id="tzsEOKulzjB3xu4Um2Aj-53" value="Query-attributten settled sættes til at kunden har betalt. I databasen" style="shape=cylinder3;whiteSpace=wrap;html=1;boundedLbl=1;backgroundOutline=1;size=15;" parent="2b4e8129b02d487f-3" vertex="1">
          <mxGeometry x="1590" y="20" width="100" height="110" as="geometry" />
        </mxCell>
        <mxCell id="EKBA3dbDIpnGJt8vrxfB-33" value="&lt;span style=&quot;font-family: &amp;#34;helvetica&amp;#34;&quot;&gt;Handlen afsluttes&lt;/span&gt;" style="ellipse;whiteSpace=wrap;html=1;aspect=fixed;" vertex="1" parent="2b4e8129b02d487f-3">
          <mxGeometry x="2630" y="30" width="80" height="80" as="geometry" />
        </mxCell>
        <mxCell id="EKBA3dbDIpnGJt8vrxfB-43" value="" style="curved=1;endArrow=classic;html=1;rounded=0;edgeStyle=orthogonalEdgeStyle;entryX=0.5;entryY=0;entryDx=0;entryDy=0;entryPerimeter=0;exitX=0.5;exitY=0;exitDx=0;exitDy=0;" edge="1" parent="2b4e8129b02d487f-3" source="7Sn1ghP0QjaeYrTUXI2Q-4" target="cRBjWWYuR_NZp4JxylkW-3">
          <mxGeometry width="50" height="50" relative="1" as="geometry">
            <mxPoint x="1150" y="-34" as="sourcePoint" />
            <mxPoint x="930" y="-14" as="targetPoint" />
            <Array as="points">
              <mxPoint x="880" y="-80" />
              <mxPoint x="1100" y="-80" />
            </Array>
          </mxGeometry>
        </mxCell>
        <mxCell id="cRBjWWYuR_NZp4JxylkW-1" value="" style="endArrow=classic;html=1;exitX=0.5;exitY=1;exitDx=0;exitDy=0;entryX=0.5;entryY=0;entryDx=0;entryDy=0;" parent="2b4e8129b02d487f-2" source="2b4e8129b02d487f-6" target="TK4KHCmlHmji3xtEz4MB-1" edge="1">
          <mxGeometry width="50" height="50" relative="1" as="geometry">
            <mxPoint x="150" y="160" as="sourcePoint" />
            <mxPoint x="200" y="110" as="targetPoint" />
          </mxGeometry>
        </mxCell>
        <mxCell id="tzsEOKulzjB3xu4Um2Aj-10" value="" style="endArrow=classic;html=1;exitX=1;exitY=0.5;exitDx=0;exitDy=0;entryX=0;entryY=0.5;entryDx=0;entryDy=0;" parent="2b4e8129b02d487f-2" source="tzsEOKulzjB3xu4Um2Aj-1" target="tzsEOKulzjB3xu4Um2Aj-12" edge="1">
          <mxGeometry width="50" height="50" relative="1" as="geometry">
            <mxPoint x="1710" y="100" as="sourcePoint" />
            <mxPoint x="1760" y="70" as="targetPoint" />
          </mxGeometry>
        </mxCell>
        <mxCell id="tzsEOKulzjB3xu4Um2Aj-11" value="nej" style="text;html=1;strokeColor=none;fillColor=none;align=center;verticalAlign=middle;whiteSpace=wrap;rounded=0;" parent="2b4e8129b02d487f-2" vertex="1">
          <mxGeometry x="1710" y="50" width="40" height="20" as="geometry" />
        </mxCell>
        <mxCell id="tzsEOKulzjB3xu4Um2Aj-12" value="Afslag" style="rounded=1;whiteSpace=wrap;html=1;" parent="2b4e8129b02d487f-2" vertex="1">
          <mxGeometry x="1810" y="40" width="120" height="60" as="geometry" />
        </mxCell>
        <mxCell id="rhigw6PtUiJ9hn-NOSnQ-4" style="edgeStyle=orthogonalEdgeStyle;rounded=0;orthogonalLoop=1;jettySize=auto;html=1;entryX=0;entryY=0.5;entryDx=0;entryDy=0;" parent="2b4e8129b02d487f-2" source="tzsEOKulzjB3xu4Um2Aj-45" target="rhigw6PtUiJ9hn-NOSnQ-2" edge="1">
          <mxGeometry relative="1" as="geometry" />
        </mxCell>
        <mxCell id="tzsEOKulzjB3xu4Um2Aj-45" value="Stykliste og kvittering modtages på mail af kunden" style="rounded=1;whiteSpace=wrap;html=1;" parent="2b4e8129b02d487f-2" vertex="1">
          <mxGeometry x="1980" y="42" width="120" height="60" as="geometry" />
        </mxCell>
        <mxCell id="tzsEOKulzjB3xu4Um2Aj-52" value="Kunden kan kommunikere om en handel stadig er mulig" style="rounded=1;whiteSpace=wrap;html=1;" parent="2b4e8129b02d487f-2" vertex="1">
          <mxGeometry x="2280" y="50" width="120" height="60" as="geometry" />
        </mxCell>
        <mxCell id="tzsEOKulzjB3xu4Um2Aj-54" value="" style="endArrow=classic;html=1;exitX=0.5;exitY=1;exitDx=0;exitDy=0;entryX=0.5;entryY=0;entryDx=0;entryDy=0;entryPerimeter=0;" parent="2b4e8129b02d487f-2" source="tzsEOKulzjB3xu4Um2Aj-1" target="tzsEOKulzjB3xu4Um2Aj-53" edge="1">
          <mxGeometry width="50" height="50" relative="1" as="geometry">
            <mxPoint x="1240" y="520" as="sourcePoint" />
            <mxPoint x="1290" y="470" as="targetPoint" />
          </mxGeometry>
        </mxCell>
        <mxCell id="tzsEOKulzjB3xu4Um2Aj-6" value="ja" style="text;html=1;strokeColor=none;fillColor=none;align=center;verticalAlign=middle;whiteSpace=wrap;rounded=0;" parent="2b4e8129b02d487f-2" vertex="1">
          <mxGeometry x="1630" y="130" width="40" height="20" as="geometry" />
        </mxCell>
        <mxCell id="rhigw6PtUiJ9hn-NOSnQ-2" value="" style="ellipse;whiteSpace=wrap;html=1;rounded=0;shadow=0;labelBackgroundColor=none;strokeWidth=1;fontFamily=Verdana;fontSize=8;align=center;" parent="2b4e8129b02d487f-2" vertex="1">
          <mxGeometry x="2140" y="57" width="30" height="30" as="geometry" />
        </mxCell>
        <mxCell id="EKBA3dbDIpnGJt8vrxfB-10" value="Kunden vælger&lt;br&gt;på at acceptere det &lt;br&gt;nye tilbud" style="rhombus;whiteSpace=wrap;html=1;" vertex="1" parent="2b4e8129b02d487f-2">
          <mxGeometry x="2720" y="8" width="130" height="128" as="geometry" />
        </mxCell>
        <mxCell id="EKBA3dbDIpnGJt8vrxfB-11" value="" style="endArrow=classic;html=1;rounded=0;edgeStyle=orthogonalEdgeStyle;exitX=0.5;exitY=0;exitDx=0;exitDy=0;entryX=0.5;entryY=0;entryDx=0;entryDy=0;" edge="1" parent="2b4e8129b02d487f-2" source="EKBA3dbDIpnGJt8vrxfB-10" target="7Sn1ghP0QjaeYrTUXI2Q-4">
          <mxGeometry width="50" height="50" relative="1" as="geometry">
            <mxPoint x="2690" y="230" as="sourcePoint" />
            <mxPoint x="2740" y="180" as="targetPoint" />
            <Array as="points">
              <mxPoint x="2785" y="-40" />
              <mxPoint x="880" y="-40" />
            </Array>
          </mxGeometry>
        </mxCell>
        <mxCell id="TK4KHCmlHmji3xtEz4MB-6" value="" style="endArrow=classic;html=1;entryX=0.5;entryY=0;entryDx=0;entryDy=0;exitX=1;exitY=0.5;exitDx=0;exitDy=0;" parent="2b4e8129b02d487f-1" source="TK4KHCmlHmji3xtEz4MB-1" target="2b4e8129b02d487f-14" edge="1">
          <mxGeometry width="50" height="50" relative="1" as="geometry">
            <mxPoint x="150" y="320" as="sourcePoint" />
            <mxPoint x="360" y="330" as="targetPoint" />
            <Array as="points">
              <mxPoint x="325" y="245" />
            </Array>
          </mxGeometry>
        </mxCell>
        <mxCell id="TK4KHCmlHmji3xtEz4MB-21" value="" style="endArrow=classic;html=1;exitX=0.5;exitY=1;exitDx=0;exitDy=0;entryX=0.5;entryY=0;entryDx=0;entryDy=0;" parent="2b4e8129b02d487f-1" source="TK4KHCmlHmji3xtEz4MB-1" target="TK4KHCmlHmji3xtEz4MB-16" edge="1">
          <mxGeometry width="50" height="50" relative="1" as="geometry">
            <mxPoint x="220" y="320" as="sourcePoint" />
            <mxPoint x="270" y="270" as="targetPoint" />
          </mxGeometry>
        </mxCell>
        <mxCell id="TK4KHCmlHmji3xtEz4MB-18" value="" style="endArrow=classic;html=1;exitX=0.5;exitY=1;exitDx=0;exitDy=0;exitPerimeter=0;entryX=1;entryY=0.5;entryDx=0;entryDy=0;" parent="2b4e8129b02d487f-1" source="2b4e8129b02d487f-15" target="TK4KHCmlHmji3xtEz4MB-11" edge="1">
          <mxGeometry width="50" height="50" relative="1" as="geometry">
            <mxPoint x="610" y="449.62" as="sourcePoint" />
            <mxPoint x="755" y="695" as="targetPoint" />
            <Array as="points">
              <mxPoint x="755" y="708" />
            </Array>
          </mxGeometry>
        </mxCell>
        <mxCell id="cRBjWWYuR_NZp4JxylkW-8" value="" style="endArrow=classic;html=1;exitX=0.5;exitY=1;exitDx=0;exitDy=0;entryX=0.5;entryY=0;entryDx=0;entryDy=0;" parent="2b4e8129b02d487f-1" source="cRBjWWYuR_NZp4JxylkW-5" target="cRBjWWYuR_NZp4JxylkW-9" edge="1">
          <mxGeometry width="50" height="50" relative="1" as="geometry">
            <mxPoint x="1060" y="340" as="sourcePoint" />
            <mxPoint x="1060" y="630" as="targetPoint" />
          </mxGeometry>
        </mxCell>
        <mxCell id="2b4e8129b02d487f-4" value="Standart&amp;nbsp;carport" style="swimlane;html=1;startSize=20;horizontal=0;" parent="2b4e8129b02d487f-1" vertex="1">
          <mxGeometry y="320" width="3180" height="160" as="geometry">
            <mxRectangle y="320" width="1200" height="20" as="alternateBounds" />
          </mxGeometry>
        </mxCell>
        <mxCell id="2b4e8129b02d487f-14" value="&lt;font style=&quot;font-size: 12px&quot;&gt;Kunden lander på siden over standart carporte&lt;/font&gt;" style="rounded=1;whiteSpace=wrap;html=1;shadow=0;labelBackgroundColor=none;strokeWidth=1;fontFamily=Verdana;fontSize=8;align=center;" parent="2b4e8129b02d487f-4" vertex="1">
          <mxGeometry x="280" y="46.25" width="90" height="56.75" as="geometry" />
        </mxCell>
        <mxCell id="TK4KHCmlHmji3xtEz4MB-10" value="Kunden vælger skræddersyet carport" style="text;html=1;strokeColor=none;fillColor=none;align=center;verticalAlign=middle;whiteSpace=wrap;rounded=0;rotation=0;" parent="2b4e8129b02d487f-4" vertex="1">
          <mxGeometry x="160" y="66.25" width="120" height="9.25" as="geometry" />
        </mxCell>
        <mxCell id="2b4e8129b02d487f-15" value="&lt;font style=&quot;font-size: 12px&quot;&gt;Carport vælges&lt;/font&gt;" style="strokeWidth=1;html=1;shape=mxgraph.flowchart.decision;whiteSpace=wrap;rounded=1;shadow=0;labelBackgroundColor=none;fontFamily=Verdana;fontSize=8;align=center;" parent="2b4e8129b02d487f-4" vertex="1">
          <mxGeometry x="710" y="30" width="90" height="90" as="geometry" />
        </mxCell>
        <mxCell id="2b4e8129b02d487f-28" style="edgeStyle=orthogonalEdgeStyle;rounded=0;html=1;labelBackgroundColor=none;startArrow=none;startFill=0;startSize=5;endArrow=classicThin;endFill=1;endSize=5;jettySize=auto;orthogonalLoop=1;strokeWidth=1;fontFamily=Verdana;fontSize=8;" parent="2b4e8129b02d487f-4" source="2b4e8129b02d487f-14" target="2b4e8129b02d487f-15" edge="1">
          <mxGeometry relative="1" as="geometry" />
        </mxCell>
        <mxCell id="TK4KHCmlHmji3xtEz4MB-15" value="Kunden vælger filtreringmuligheder" style="text;html=1;strokeColor=none;fillColor=none;align=center;verticalAlign=middle;whiteSpace=wrap;rounded=0;" parent="2b4e8129b02d487f-4" vertex="1">
          <mxGeometry x="450" y="46.25" width="160" height="20" as="geometry" />
        </mxCell>
        <mxCell id="tzsEOKulzjB3xu4Um2Aj-21" value="Byggevejledning, visualisering og udsalgspris gøres tilgængelig for kunden" style="text;html=1;strokeColor=none;fillColor=none;align=center;verticalAlign=middle;whiteSpace=wrap;rounded=0;" parent="2b4e8129b02d487f-4" vertex="1">
          <mxGeometry x="1460" y="70" width="100" height="20" as="geometry" />
        </mxCell>
        <mxCell id="tzsEOKulzjB3xu4Um2Aj-24" value="Stykliste genereres for standart carport" style="rounded=1;whiteSpace=wrap;html=1;" parent="2b4e8129b02d487f-4" vertex="1">
          <mxGeometry x="1040" y="50" width="120" height="60" as="geometry" />
        </mxCell>
        <mxCell id="tzsEOKulzjB3xu4Um2Aj-27" value="Stykliste for standart carport hentes ud fra databasen" style="text;html=1;strokeColor=none;fillColor=none;align=center;verticalAlign=middle;whiteSpace=wrap;rounded=0;" parent="2b4e8129b02d487f-4" vertex="1">
          <mxGeometry x="1100" y="5" width="100" height="20" as="geometry" />
        </mxCell>
        <mxCell id="tzsEOKulzjB3xu4Um2Aj-46" value="Stykliste fremsendes per mail" style="text;html=1;strokeColor=none;fillColor=none;align=center;verticalAlign=middle;whiteSpace=wrap;rounded=0;" parent="2b4e8129b02d487f-4" vertex="1">
          <mxGeometry x="2040" y="80.19" width="160" height="20" as="geometry" />
        </mxCell>
        <mxCell id="tzsEOKulzjB3xu4Um2Aj-58" value="Sælger kommunikerer om der er behov hos kunden der kan forhandles om" style="text;html=1;strokeColor=none;fillColor=none;align=center;verticalAlign=middle;whiteSpace=wrap;rounded=0;" parent="2b4e8129b02d487f-4" vertex="1">
          <mxGeometry x="2340" y="79.63" width="150" height="20" as="geometry" />
        </mxCell>
        <mxCell id="tzsEOKulzjB3xu4Um2Aj-60" value="Svaret&amp;nbsp; kommunikeres tilbage til sælger" style="text;html=1;strokeColor=none;fillColor=none;align=center;verticalAlign=middle;whiteSpace=wrap;rounded=0;" parent="2b4e8129b02d487f-4" vertex="1">
          <mxGeometry x="2560" y="90" width="130" height="0.38" as="geometry" />
        </mxCell>
        <mxCell id="tzsEOKulzjB3xu4Um2Aj-19" value="Stykliste for skræddersyet carport hentes ud fra database" style="text;html=1;strokeColor=none;fillColor=none;align=center;verticalAlign=middle;whiteSpace=wrap;rounded=0;" parent="2b4e8129b02d487f-4" vertex="1">
          <mxGeometry x="1310" y="60" width="120" height="30" as="geometry" />
        </mxCell>
        <mxCell id="EKBA3dbDIpnGJt8vrxfB-20" value="Det nye tilbud kommunikeres til kunden" style="text;html=1;strokeColor=none;fillColor=none;align=center;verticalAlign=middle;whiteSpace=wrap;rounded=0;" vertex="1" parent="2b4e8129b02d487f-4">
          <mxGeometry x="2780" y="80.19" width="110" height="20" as="geometry" />
        </mxCell>
        <mxCell id="EKBA3dbDIpnGJt8vrxfB-14" value="Kunden kommunikerer at det nye tilbud ikke kan accepteres" style="text;html=1;strokeColor=none;fillColor=none;align=center;verticalAlign=middle;whiteSpace=wrap;rounded=0;" vertex="1" parent="2b4e8129b02d487f-4">
          <mxGeometry x="3020" y="80.19" width="110" height="20" as="geometry" />
        </mxCell>
        <mxCell id="TK4KHCmlHmji3xtEz4MB-5" value="Skræddersyet carport" style="swimlane;html=1;startSize=20;horizontal=0;" parent="2b4e8129b02d487f-1" vertex="1">
          <mxGeometry y="480" width="3180" height="151.69" as="geometry" />
        </mxCell>
        <mxCell id="TK4KHCmlHmji3xtEz4MB-8" value="&lt;br&gt;Kunden udfylder formularen for&amp;nbsp;mål,&lt;br&gt;&amp;nbsp;materialer, farve &lt;br&gt;mm." style="rhombus;whiteSpace=wrap;html=1;" parent="TK4KHCmlHmji3xtEz4MB-5" vertex="1">
          <mxGeometry x="250" width="150" height="150" as="geometry" />
        </mxCell>
        <mxCell id="TK4KHCmlHmji3xtEz4MB-16" value="&lt;font style=&quot;font-size: 12px&quot;&gt;Kunden lander på siden, skræddersy carport&lt;/font&gt;" style="rounded=1;whiteSpace=wrap;html=1;shadow=0;labelBackgroundColor=none;strokeWidth=1;fontFamily=Verdana;fontSize=8;align=center;" parent="TK4KHCmlHmji3xtEz4MB-5" vertex="1">
          <mxGeometry x="90" y="50" width="130" height="50" as="geometry" />
        </mxCell>
        <mxCell id="TK4KHCmlHmji3xtEz4MB-17" value="" style="endArrow=classic;html=1;exitX=1;exitY=0.5;exitDx=0;exitDy=0;entryX=0;entryY=0.5;entryDx=0;entryDy=0;" parent="TK4KHCmlHmji3xtEz4MB-5" source="TK4KHCmlHmji3xtEz4MB-16" target="TK4KHCmlHmji3xtEz4MB-8" edge="1">
          <mxGeometry width="50" height="50" relative="1" as="geometry">
            <mxPoint x="260" y="10" as="sourcePoint" />
            <mxPoint x="310" y="-40" as="targetPoint" />
          </mxGeometry>
        </mxCell>
        <mxCell id="TK4KHCmlHmji3xtEz4MB-29" value="Nej" style="text;html=1;strokeColor=none;fillColor=none;align=center;verticalAlign=middle;whiteSpace=wrap;rounded=0;" parent="TK4KHCmlHmji3xtEz4MB-5" vertex="1">
          <mxGeometry x="397.31" y="51.69000000000006" width="40" height="20" as="geometry" />
        </mxCell>
        <mxCell id="TK4KHCmlHmji3xtEz4MB-30" value="Kunden klikker på send forespørgsel" style="text;html=1;strokeColor=none;fillColor=none;align=center;verticalAlign=middle;whiteSpace=wrap;rounded=0;" parent="TK4KHCmlHmji3xtEz4MB-5" vertex="1">
          <mxGeometry x="760" y="50" width="100" height="35.85" as="geometry" />
        </mxCell>
        <mxCell id="TK4KHCmlHmji3xtEz4MB-24" value="Formularen er udfyldt korrekt" style="rhombus;whiteSpace=wrap;html=1;" parent="TK4KHCmlHmji3xtEz4MB-5" vertex="1">
          <mxGeometry x="437.31" y="25" width="100" height="100" as="geometry" />
        </mxCell>
        <mxCell id="TK4KHCmlHmji3xtEz4MB-14" value="" style="endArrow=classic;html=1;exitX=0.5;exitY=1;exitDx=0;exitDy=0;" parent="TK4KHCmlHmji3xtEz4MB-5" source="TK4KHCmlHmji3xtEz4MB-8" target="TK4KHCmlHmji3xtEz4MB-24" edge="1">
          <mxGeometry width="50" height="50" relative="1" as="geometry">
            <mxPoint x="260" y="70" as="sourcePoint" />
            <mxPoint x="370" y="225" as="targetPoint" />
            <Array as="points">
              <mxPoint x="487" y="150" />
            </Array>
          </mxGeometry>
        </mxCell>
        <mxCell id="TK4KHCmlHmji3xtEz4MB-23" value="Kunden klikker på send forespørsel" style="text;html=1;strokeColor=none;fillColor=none;align=center;verticalAlign=middle;whiteSpace=wrap;rounded=0;" parent="TK4KHCmlHmji3xtEz4MB-5" vertex="1">
          <mxGeometry x="367.31" y="125" width="100" height="20" as="geometry" />
        </mxCell>
        <mxCell id="TK4KHCmlHmji3xtEz4MB-28" value="Ja" style="text;html=1;strokeColor=none;fillColor=none;align=center;verticalAlign=middle;whiteSpace=wrap;rounded=0;" parent="TK4KHCmlHmji3xtEz4MB-5" vertex="1">
          <mxGeometry x="560" y="80" width="40" height="20" as="geometry" />
        </mxCell>
        <mxCell id="tzsEOKulzjB3xu4Um2Aj-28" value="Stykliste gøres tilgængelig for sælger" style="text;html=1;strokeColor=none;fillColor=none;align=center;verticalAlign=middle;whiteSpace=wrap;rounded=0;" parent="TK4KHCmlHmji3xtEz4MB-5" vertex="1">
          <mxGeometry x="1100" y="51.69" width="90" height="20" as="geometry" />
        </mxCell>
        <mxCell id="cRBjWWYuR_NZp4JxylkW-5" value="Byggevejledning, visualisering og vejledende pris genereres" style="rounded=1;whiteSpace=wrap;html=1;" parent="TK4KHCmlHmji3xtEz4MB-5" vertex="1">
          <mxGeometry x="1250" y="40" width="120" height="60" as="geometry" />
        </mxCell>
        <mxCell id="tzsEOKulzjB3xu4Um2Aj-20" value="Byggevejledning, visualisering og vejledende pris gøres tilgængelig for sælger" style="text;html=1;strokeColor=none;fillColor=none;align=center;verticalAlign=middle;whiteSpace=wrap;rounded=0;" parent="TK4KHCmlHmji3xtEz4MB-5" vertex="1">
          <mxGeometry x="1310" y="131.69" width="100" height="20" as="geometry" />
        </mxCell>
        <mxCell id="tzsEOKulzjB3xu4Um2Aj-17" value="Sælger vælger dan stykliste" style="text;html=1;strokeColor=none;fillColor=none;align=center;verticalAlign=middle;whiteSpace=wrap;rounded=0;" parent="TK4KHCmlHmji3xtEz4MB-5" vertex="1">
          <mxGeometry x="880" y="5" width="90" height="20" as="geometry" />
        </mxCell>
        <mxCell id="EKBA3dbDIpnGJt8vrxfB-38" value="Handlen afsluttes" style="text;html=1;strokeColor=none;fillColor=none;align=center;verticalAlign=middle;whiteSpace=wrap;rounded=0;" vertex="1" parent="TK4KHCmlHmji3xtEz4MB-5">
          <mxGeometry x="2740" y="100" width="40" height="20" as="geometry" />
        </mxCell>
        <mxCell id="EKBA3dbDIpnGJt8vrxfB-39" value="" style="endArrow=classic;html=1;rounded=0;edgeStyle=orthogonalEdgeStyle;exitX=0;exitY=0.5;exitDx=0;exitDy=0;entryX=1;entryY=0.5;entryDx=0;entryDy=0;" edge="1" parent="TK4KHCmlHmji3xtEz4MB-5" source="TK4KHCmlHmji3xtEz4MB-24" target="TK4KHCmlHmji3xtEz4MB-8">
          <mxGeometry width="50" height="50" relative="1" as="geometry">
            <mxPoint x="550" y="70" as="sourcePoint" />
            <mxPoint x="600" y="20" as="targetPoint" />
          </mxGeometry>
        </mxCell>
        <mxCell id="TK4KHCmlHmji3xtEz4MB-4" value="Sælger" style="swimlane;html=1;startSize=20;horizontal=0;" parent="2b4e8129b02d487f-1" vertex="1">
          <mxGeometry y="631.69" width="3180" height="160.31" as="geometry" />
        </mxCell>
        <mxCell id="tzsEOKulzjB3xu4Um2Aj-35" value="" style="shape=parallelogram;perimeter=parallelogramPerimeter;whiteSpace=wrap;html=1;fixedSize=1;" parent="TK4KHCmlHmji3xtEz4MB-4" vertex="1">
          <mxGeometry x="1360" y="105" width="120" height="30" as="geometry" />
        </mxCell>
        <mxCell id="TK4KHCmlHmji3xtEz4MB-11" value="&lt;font style=&quot;font-size: 12px&quot;&gt;Forespørgsel modtages på mail af sælger&lt;/font&gt;" style="rounded=1;whiteSpace=wrap;html=1;shadow=0;labelBackgroundColor=none;strokeWidth=1;fontFamily=Verdana;fontSize=8;align=center;" parent="TK4KHCmlHmji3xtEz4MB-4" vertex="1">
          <mxGeometry x="590" y="53.25" width="90" height="46.75" as="geometry" />
        </mxCell>
        <mxCell id="cRBjWWYuR_NZp4JxylkW-9" value="Sælger vælger&lt;br&gt;sin&lt;br&gt;&amp;nbsp;udsalgspris" style="rhombus;whiteSpace=wrap;html=1;" parent="TK4KHCmlHmji3xtEz4MB-4" vertex="1">
          <mxGeometry x="1250" y="20" width="120" height="110" as="geometry" />
        </mxCell>
        <mxCell id="tzsEOKulzjB3xu4Um2Aj-26" value="Sælger kan se stykliste" style="rounded=1;whiteSpace=wrap;html=1;" parent="TK4KHCmlHmji3xtEz4MB-4" vertex="1">
          <mxGeometry x="1040" y="45" width="120" height="60" as="geometry" />
        </mxCell>
        <mxCell id="tzsEOKulzjB3xu4Um2Aj-32" value="Stykliste fra database og kvittering gøres klar til kunden" style="rounded=1;whiteSpace=wrap;html=1;" parent="TK4KHCmlHmji3xtEz4MB-4" vertex="1">
          <mxGeometry x="1580" y="45" width="120" height="60" as="geometry" />
        </mxCell>
        <mxCell id="tzsEOKulzjB3xu4Um2Aj-33" value="" style="endArrow=classic;html=1;exitX=0.5;exitY=1;exitDx=0;exitDy=0;entryX=0.5;entryY=1;entryDx=0;entryDy=0;" parent="TK4KHCmlHmji3xtEz4MB-4" source="tzsEOKulzjB3xu4Um2Aj-26" target="tzsEOKulzjB3xu4Um2Aj-32" edge="1">
          <mxGeometry width="50" height="50" relative="1" as="geometry">
            <mxPoint x="1500" y="40" as="sourcePoint" />
            <mxPoint x="1550" y="-10" as="targetPoint" />
            <Array as="points">
              <mxPoint x="1100" y="140" />
              <mxPoint x="1370" y="140" />
              <mxPoint x="1640" y="140" />
            </Array>
          </mxGeometry>
        </mxCell>
        <mxCell id="tzsEOKulzjB3xu4Um2Aj-34" value="Kunden har betalt" style="text;html=1;strokeColor=none;fillColor=none;align=center;verticalAlign=middle;whiteSpace=wrap;rounded=0;" parent="TK4KHCmlHmji3xtEz4MB-4" vertex="1">
          <mxGeometry x="1370" y="110" width="100" height="20" as="geometry" />
        </mxCell>
        <mxCell id="tzsEOKulzjB3xu4Um2Aj-43" value="" style="endArrow=classic;html=1;exitX=1;exitY=0.5;exitDx=0;exitDy=0;" parent="TK4KHCmlHmji3xtEz4MB-4" source="tzsEOKulzjB3xu4Um2Aj-32" edge="1">
          <mxGeometry width="50" height="50" relative="1" as="geometry">
            <mxPoint x="1720" y="80" as="sourcePoint" />
            <mxPoint x="2040" y="-500" as="targetPoint" />
            <Array as="points">
              <mxPoint x="1750" y="75" />
              <mxPoint x="2040" y="75" />
              <mxPoint x="2040" y="-380" />
            </Array>
          </mxGeometry>
        </mxCell>
        <mxCell id="tzsEOKulzjB3xu4Um2Aj-50" value="Sælger kommunikerer til kunden om det er muligt at lave om på produkt eller pris?" style="rounded=1;whiteSpace=wrap;html=1;" parent="TK4KHCmlHmji3xtEz4MB-4" vertex="1">
          <mxGeometry x="2140" y="45" width="150" height="60" as="geometry" />
        </mxCell>
        <mxCell id="tzsEOKulzjB3xu4Um2Aj-41" value="Hvis det er muligt at imødekomme kundens behov kan der laves et nyt tilbud, handlen afsluttes, eller kunden kan lave en ny forespørgsel" style="rounded=1;whiteSpace=wrap;html=1;" parent="TK4KHCmlHmji3xtEz4MB-4" vertex="1">
          <mxGeometry x="2480" y="45.15" width="170" height="70" as="geometry" />
        </mxCell>
        <mxCell id="EKBA3dbDIpnGJt8vrxfB-19" value="&lt;span style=&quot;font-family: &amp;#34;helvetica&amp;#34;&quot;&gt;Handlen afsluttes&lt;/span&gt;" style="ellipse;whiteSpace=wrap;html=1;aspect=fixed;" vertex="1" parent="TK4KHCmlHmji3xtEz4MB-4">
          <mxGeometry x="2980" y="35.309999999999945" width="80" height="80" as="geometry" />
        </mxCell>
        <mxCell id="7Sn1ghP0QjaeYrTUXI2Q-7" value="" style="endArrow=classic;html=1;exitX=1;exitY=0.5;exitDx=0;exitDy=0;entryX=0.5;entryY=1;entryDx=0;entryDy=0;" parent="2b4e8129b02d487f-1" source="cRBjWWYuR_NZp4JxylkW-9" target="7Sn1ghP0QjaeYrTUXI2Q-8" edge="1">
          <mxGeometry width="50" height="50" relative="1" as="geometry">
            <mxPoint x="1350" y="720" as="sourcePoint" />
            <mxPoint x="1460" y="130" as="targetPoint" />
            <Array as="points">
              <mxPoint x="1460" y="707" />
            </Array>
          </mxGeometry>
        </mxCell>
        <mxCell id="tzsEOKulzjB3xu4Um2Aj-23" value="" style="endArrow=classic;html=1;exitX=0.5;exitY=1;exitDx=0;exitDy=0;exitPerimeter=0;" parent="2b4e8129b02d487f-1" source="cRBjWWYuR_NZp4JxylkW-3" target="tzsEOKulzjB3xu4Um2Aj-24" edge="1">
          <mxGeometry width="50" height="50" relative="1" as="geometry">
            <mxPoint x="1180" y="400" as="sourcePoint" />
            <mxPoint x="1100" y="350" as="targetPoint" />
          </mxGeometry>
        </mxCell>
        <mxCell id="tzsEOKulzjB3xu4Um2Aj-25" value="" style="endArrow=classic;html=1;exitX=0.5;exitY=1;exitDx=0;exitDy=0;entryX=0.5;entryY=0;entryDx=0;entryDy=0;" parent="2b4e8129b02d487f-1" source="tzsEOKulzjB3xu4Um2Aj-24" target="tzsEOKulzjB3xu4Um2Aj-26" edge="1">
          <mxGeometry width="50" height="50" relative="1" as="geometry">
            <mxPoint x="1100" y="480" as="sourcePoint" />
            <mxPoint x="1100" y="650" as="targetPoint" />
            <Array as="points">
              <mxPoint x="1100" y="560" />
            </Array>
          </mxGeometry>
        </mxCell>
        <mxCell id="tzsEOKulzjB3xu4Um2Aj-40" value="" style="endArrow=classic;html=1;exitX=0.5;exitY=0;exitDx=0;exitDy=0;entryX=0.5;entryY=0;entryDx=0;entryDy=0;" parent="2b4e8129b02d487f-1" source="tzsEOKulzjB3xu4Um2Aj-12" target="tzsEOKulzjB3xu4Um2Aj-50" edge="1">
          <mxGeometry width="50" height="50" relative="1" as="geometry">
            <mxPoint x="1880" y="180" as="sourcePoint" />
            <mxPoint x="2215" y="620" as="targetPoint" />
            <Array as="points">
              <mxPoint x="1870" y="40" />
              <mxPoint x="2215" y="40" />
            </Array>
          </mxGeometry>
        </mxCell>
        <mxCell id="tzsEOKulzjB3xu4Um2Aj-55" value="" style="endArrow=classic;html=1;exitX=0.5;exitY=1;exitDx=0;exitDy=0;exitPerimeter=0;entryX=0.5;entryY=0;entryDx=0;entryDy=0;" parent="2b4e8129b02d487f-1" source="tzsEOKulzjB3xu4Um2Aj-53" target="tzsEOKulzjB3xu4Um2Aj-32" edge="1">
          <mxGeometry width="50" height="50" relative="1" as="geometry">
            <mxPoint x="1650" y="380" as="sourcePoint" />
            <mxPoint x="1700" y="330" as="targetPoint" />
          </mxGeometry>
        </mxCell>
        <mxCell id="tzsEOKulzjB3xu4Um2Aj-59" value="" style="endArrow=classic;html=1;exitX=1;exitY=0.5;exitDx=0;exitDy=0;entryX=0.5;entryY=0;entryDx=0;entryDy=0;" parent="2b4e8129b02d487f-1" source="tzsEOKulzjB3xu4Um2Aj-52" target="tzsEOKulzjB3xu4Um2Aj-41" edge="1">
          <mxGeometry width="50" height="50" relative="1" as="geometry">
            <mxPoint x="2440" y="140" as="sourcePoint" />
            <mxPoint x="2522.8571428571427" y="680" as="targetPoint" />
            <Array as="points">
              <mxPoint x="2560" y="100" />
            </Array>
          </mxGeometry>
        </mxCell>
        <mxCell id="tzsEOKulzjB3xu4Um2Aj-61" value="" style="endArrow=classic;html=1;entryX=0;entryY=0.5;entryDx=0;entryDy=0;exitX=0.5;exitY=1;exitDx=0;exitDy=0;" parent="2b4e8129b02d487f-1" source="tzsEOKulzjB3xu4Um2Aj-41" target="TK4KHCmlHmji3xtEz4MB-1" edge="1">
          <mxGeometry width="50" height="50" relative="1" as="geometry">
            <mxPoint x="2530" y="760" as="sourcePoint" />
            <mxPoint x="-20" y="240" as="targetPoint" />
            <Array as="points">
              <mxPoint x="2565" y="810" />
              <mxPoint x="1270" y="810" />
              <mxPoint x="-20" y="800" />
              <mxPoint x="-20" y="245" />
            </Array>
          </mxGeometry>
        </mxCell>
        <mxCell id="7Sn1ghP0QjaeYrTUXI2Q-6" value="" style="endArrow=classic;html=1;exitX=1;exitY=0.5;exitDx=0;exitDy=0;exitPerimeter=0;entryX=0.5;entryY=0;entryDx=0;entryDy=0;" parent="2b4e8129b02d487f-1" source="cRBjWWYuR_NZp4JxylkW-3" target="cRBjWWYuR_NZp4JxylkW-5" edge="1">
          <mxGeometry width="50" height="50" relative="1" as="geometry">
            <mxPoint x="1160" y="280" as="sourcePoint" />
            <mxPoint x="1210" y="230" as="targetPoint" />
            <Array as="points">
              <mxPoint x="1310" y="245" />
            </Array>
          </mxGeometry>
        </mxCell>
        <mxCell id="cRBjWWYuR_NZp4JxylkW-2" value="" style="endArrow=classic;html=1;startArrow=none;entryX=0.5;entryY=1;entryDx=0;entryDy=0;exitX=0.5;exitY=1;exitDx=0;exitDy=0;" parent="2b4e8129b02d487f-1" target="7Sn1ghP0QjaeYrTUXI2Q-4" edge="1" source="TK4KHCmlHmji3xtEz4MB-11">
          <mxGeometry width="50" height="50" relative="1" as="geometry">
            <mxPoint x="630" y="730" as="sourcePoint" />
            <mxPoint x="880" y="595" as="targetPoint" />
            <Array as="points">
              <mxPoint x="635" y="740" />
              <mxPoint x="790" y="740" />
              <mxPoint x="880" y="740" />
            </Array>
          </mxGeometry>
        </mxCell>
        <mxCell id="TK4KHCmlHmji3xtEz4MB-27" value="" style="endArrow=classic;html=1;exitX=1;exitY=0.5;exitDx=0;exitDy=0;entryX=0.5;entryY=0;entryDx=0;entryDy=0;" parent="2b4e8129b02d487f-1" source="TK4KHCmlHmji3xtEz4MB-24" edge="1" target="TK4KHCmlHmji3xtEz4MB-11">
          <mxGeometry width="50" height="50" relative="1" as="geometry">
            <mxPoint x="380" y="590" as="sourcePoint" />
            <mxPoint x="630" y="670" as="targetPoint" />
            <Array as="points">
              <mxPoint x="635" y="555" />
            </Array>
          </mxGeometry>
        </mxCell>
        <mxCell id="EKBA3dbDIpnGJt8vrxfB-5" value="" style="endArrow=classic;html=1;rounded=0;edgeStyle=orthogonalEdgeStyle;exitX=1;exitY=0.5;exitDx=0;exitDy=0;entryX=0.5;entryY=1;entryDx=0;entryDy=0;" edge="1" parent="2b4e8129b02d487f-1" source="tzsEOKulzjB3xu4Um2Aj-41" target="EKBA3dbDIpnGJt8vrxfB-10">
          <mxGeometry width="50" height="50" relative="1" as="geometry">
            <mxPoint x="2680" y="610" as="sourcePoint" />
            <mxPoint x="2780" y="160" as="targetPoint" />
          </mxGeometry>
        </mxCell>
        <mxCell id="EKBA3dbDIpnGJt8vrxfB-22" value="" style="endArrow=classic;html=1;rounded=0;edgeStyle=orthogonalEdgeStyle;exitX=1;exitY=0.5;exitDx=0;exitDy=0;entryX=0.5;entryY=0;entryDx=0;entryDy=0;" edge="1" parent="2b4e8129b02d487f-1" source="EKBA3dbDIpnGJt8vrxfB-10" target="EKBA3dbDIpnGJt8vrxfB-19">
          <mxGeometry width="50" height="50" relative="1" as="geometry">
            <mxPoint x="3030" y="120" as="sourcePoint" />
            <mxPoint x="3080" y="70" as="targetPoint" />
          </mxGeometry>
        </mxCell>
        <mxCell id="EKBA3dbDIpnGJt8vrxfB-29" value="" style="endArrow=classic;html=1;rounded=0;edgeStyle=orthogonalEdgeStyle;exitX=1;exitY=0.5;exitDx=0;exitDy=0;entryX=0.5;entryY=1;entryDx=0;entryDy=0;" edge="1" parent="2b4e8129b02d487f-1" source="tzsEOKulzjB3xu4Um2Aj-50" target="tzsEOKulzjB3xu4Um2Aj-52">
          <mxGeometry width="50" height="50" relative="1" as="geometry">
            <mxPoint x="2370" y="630" as="sourcePoint" />
            <mxPoint x="2420" y="580" as="targetPoint" />
          </mxGeometry>
        </mxCell>
        <mxCell id="EKBA3dbDIpnGJt8vrxfB-37" value="" style="curved=1;endArrow=classic;html=1;rounded=0;edgeStyle=orthogonalEdgeStyle;exitX=1;exitY=0.5;exitDx=0;exitDy=0;" edge="1" parent="2b4e8129b02d487f-1" source="tzsEOKulzjB3xu4Um2Aj-41" target="EKBA3dbDIpnGJt8vrxfB-33">
          <mxGeometry width="50" height="50" relative="1" as="geometry">
            <mxPoint x="2690" y="620" as="sourcePoint" />
            <mxPoint x="2740" y="570" as="targetPoint" />
            <Array as="points">
              <mxPoint x="2740" y="712" />
              <mxPoint x="2740" y="240" />
            </Array>
          </mxGeometry>
        </mxCell>
        <mxCell id="EKBA3dbDIpnGJt8vrxfB-4" value="Kunden vil lave en ny forespørsel" style="text;html=1;strokeColor=none;fillColor=none;align=center;verticalAlign=middle;whiteSpace=wrap;rounded=0;" vertex="1" parent="1">
          <mxGeometry x="2480" y="872" width="200" height="20" as="geometry" />
        </mxCell>
        <mxCell id="EKBA3dbDIpnGJt8vrxfB-12" value="Kunden accepterer det nye tilbud" style="text;html=1;strokeColor=none;fillColor=none;align=center;verticalAlign=middle;whiteSpace=wrap;rounded=0;" vertex="1" parent="1">
          <mxGeometry x="2770" y="40" width="180" height="20" as="geometry" />
        </mxCell>
        <mxCell id="EKBA3dbDIpnGJt8vrxfB-27" value="Ordforklaring: med kommunikerer menes der på mail eller pr. telefon" style="text;whiteSpace=wrap;html=1;" vertex="1" parent="1">
          <mxGeometry x="2400" y="10" width="390" height="30" as="geometry" />
        </mxCell>
      </root>
    </mxGraphModel>
  </diagram>
</mxfile>
